<svg version="1.1" id="Layer_1" xmlns="http://www.w3.org/2000/svg" xmlns:xlink="http://www.w3.org/1999/xlink" x="0px" y="0px"
	 width="100%" viewBox="0 0 255 255" enable-background="new 0 0 255 255" xml:space="preserve">
<path fill="#FFFEFE" opacity="1.000000" stroke="none" 
	d="
M172.000000,256.000000 
	C114.666672,256.000000 57.833340,256.000000 1.000008,256.000000 
	C1.000005,171.000015 1.000005,86.000015 1.000003,1.000019 
	C85.999985,1.000013 170.999969,1.000013 255.999969,1.000006 
	C255.999969,85.999977 255.999969,170.999954 255.999985,255.999969 
	C228.166672,256.000000 200.333328,256.000000 172.000000,256.000000 
M119.566048,200.071030 
	C121.348251,196.235641 124.454803,192.472183 124.667786,188.551544 
	C125.344521,176.094193 124.999527,163.577591 124.858910,151.086044 
	C124.846573,149.990799 123.466370,147.987854 122.679001,147.966415 
	C114.287315,147.737747 105.887039,147.824387 96.943398,147.824387 
	C96.943398,156.406387 96.943398,164.136627 96.943398,172.349670 
	C92.632767,172.349670 88.898888,172.349670 84.994774,172.349670 
	C84.994774,176.857635 85.216499,180.870026 84.876221,184.834198 
	C84.754799,186.248657 83.272026,187.546265 82.410667,188.897202 
	C81.608788,187.483215 80.230476,186.114410 80.115387,184.646576 
	C79.796806,180.583191 80.005035,176.478500 80.005035,171.813812 
	C75.191505,171.813812 71.134590,171.813812 67.150749,171.813812 
	C67.150749,141.789322 67.150749,112.359268 67.150749,82.316467 
	C71.469635,82.316467 75.528336,82.316467 80.005035,82.316467 
	C80.005035,78.252510 79.769989,74.766060 80.114944,71.337982 
	C80.263298,69.863747 81.614693,68.510574 82.419525,67.102402 
	C83.277939,68.457687 84.734138,69.753098 84.877060,71.180038 
	C85.234070,74.744629 84.994774,78.368935 84.994774,82.500130 
	C89.408035,82.500130 93.141212,82.500130 97.467232,82.500130 
	C97.467232,87.602272 97.467232,92.165169 97.467232,97.020462 
	C105.560509,97.020462 113.048439,96.876038 120.526680,97.082581 
	C124.158287,97.182884 125.126312,95.672821 125.012558,92.324539 
	C124.820366,86.667297 124.983749,80.998672 124.954208,75.335060 
	C124.888695,62.774021 117.332619,55.268875 104.622437,55.229599 
	C89.630257,55.183270 74.637741,55.186447 59.645546,55.228088 
	C46.431030,55.264793 39.014870,62.766891 39.008820,76.080986 
	C38.992325,112.395706 38.992470,148.710434 39.008518,185.025162 
	C39.014317,198.148315 46.120979,205.392502 59.356537,205.503540 
	C74.514366,205.630722 89.674118,205.549377 104.832970,205.523605 
	C110.121056,205.514603 115.084709,204.470749 119.566048,200.071030 
M216.780991,83.512589 
	C216.779755,80.514206 216.807465,77.515472 216.772064,74.517494 
	C216.643143,63.599979 209.343475,55.556931 198.557709,55.360626 
	C182.071365,55.060562 165.570999,55.046452 149.085373,55.365387 
	C138.599976,55.568241 131.343765,63.234108 131.242783,73.650642 
	C131.066772,91.804367 131.084854,109.960258 131.115189,128.115082 
	C131.117447,129.468216 131.441742,131.511978 132.337982,132.064865 
	C140.743301,137.250046 149.306030,142.180008 158.651215,147.670135 
	C158.651215,144.733353 158.651230,142.949127 158.651215,141.164902 
	C158.651062,123.007195 158.722580,104.848961 158.587219,86.692261 
	C158.561676,83.268242 159.526840,81.760490 163.099319,82.079781 
	C165.667633,82.309326 168.272995,82.124466 171.009537,82.124466 
	C171.009537,79.798538 170.677109,77.894104 171.082932,76.162720 
	C171.795197,73.123924 168.672379,67.571495 173.630661,67.539116 
	C177.987656,67.510651 175.381454,72.934013 175.920837,75.897194 
	C176.285751,77.901886 175.990463,80.026756 175.990463,82.123764 
	C178.765579,82.123764 180.770020,82.315308 182.725037,82.085846 
	C187.518066,81.523308 189.368851,82.948051 189.279175,88.309158 
	C188.930923,109.126389 189.914383,129.993652 188.825150,150.759583 
	C188.238464,161.944916 191.195023,168.868622 201.691193,172.973648 
	C206.795197,174.969833 211.344330,178.384735 216.780838,181.524841 
	C216.780838,148.444153 216.780838,116.476204 216.780991,83.512589 
M155.192627,151.409531 
	C147.374115,146.862259 139.555603,142.314972 131.070404,137.379959 
	C131.070404,153.955490 131.057892,169.422760 131.074173,184.889999 
	C131.088470,198.463821 137.993912,205.386719 151.721237,205.468826 
	C163.876465,205.541550 176.045609,205.832703 188.183792,205.372635 
	C197.349167,205.025253 205.955307,206.271240 214.205750,210.322571 
	C217.326645,211.855087 220.699066,212.875381 224.531250,214.350235 
	C219.575439,188.937195 219.575546,188.937027 199.223755,177.097168 
	C198.361145,176.595337 197.393036,176.220703 196.644150,175.586090 
	C190.447083,170.334625 183.281830,172.445602 175.993607,172.230469 
	C175.993607,176.815628 176.212936,180.809326 175.878204,184.756042 
	C175.756134,186.195328 174.315872,187.522812 173.477020,188.901321 
	C172.653503,187.504684 171.236221,186.155609 171.119812,184.702332 
	C170.794205,180.637161 171.006470,176.528915 171.006470,171.946136 
	C166.548080,171.946136 162.800858,171.946136 158.641190,171.946136 
	C158.641190,166.640335 158.892395,161.820999 158.512390,157.051987 
	C158.368759,155.249451 156.767059,153.563126 155.192627,151.409531 
z"/>
<path fill="#E84B2C" opacity="1.000000" stroke="none" 
	d="
M119.303467,200.326782 
	C115.084709,204.470749 110.121056,205.514603 104.832970,205.523605 
	C89.674118,205.549377 74.514366,205.630722 59.356537,205.503540 
	C46.120979,205.392502 39.014317,198.148315 39.008518,185.025162 
	C38.992470,148.710434 38.992325,112.395706 39.008820,76.080986 
	C39.014870,62.766891 46.431030,55.264793 59.645546,55.228088 
	C74.637741,55.186447 89.630257,55.183270 104.622437,55.229599 
	C117.332619,55.268875 124.888695,62.774021 124.954208,75.335060 
	C124.983749,80.998672 124.820366,86.667297 125.012558,92.324539 
	C125.126312,95.672821 124.158287,97.182884 120.526680,97.082581 
	C113.048439,96.876038 105.560509,97.020462 97.467232,97.020462 
	C97.467232,92.165169 97.467232,87.602272 97.467232,82.500130 
	C93.141212,82.500130 89.408035,82.500130 84.994774,82.500130 
	C84.994774,78.368935 85.234070,74.744629 84.877060,71.180038 
	C84.734138,69.753098 83.277939,68.457687 82.419525,67.102402 
	C81.614693,68.510574 80.263298,69.863747 80.114944,71.337982 
	C79.769989,74.766060 80.005035,78.252510 80.005035,82.316467 
	C75.528336,82.316467 71.469635,82.316467 67.150749,82.316467 
	C67.150749,112.359268 67.150749,141.789322 67.150749,171.813812 
	C71.134590,171.813812 75.191505,171.813812 80.005035,171.813812 
	C80.005035,176.478500 79.796806,180.583191 80.115387,184.646576 
	C80.230476,186.114410 81.608788,187.483215 82.410660,188.897202 
	C83.272026,187.546265 84.754799,186.248657 84.876221,184.834198 
	C85.216499,180.870026 84.994774,176.857635 84.994774,172.349670 
	C88.898888,172.349670 92.632767,172.349670 96.943398,172.349670 
	C96.943398,164.136627 96.943398,156.406387 96.943398,147.824387 
	C105.887039,147.824387 114.287315,147.737747 122.679001,147.966415 
	C123.466370,147.987854 124.846573,149.990799 124.858910,151.086044 
	C124.999527,163.577591 125.344521,176.094193 124.667786,188.551544 
	C124.454803,192.472183 121.348251,196.235641 119.303467,200.326782 
z"/>
<path fill="#218AEA" opacity="1.000000" stroke="none" 
	d="
M216.780914,84.010422 
	C216.780838,116.476204 216.780838,148.444153 216.780838,181.524841 
	C211.344330,178.384735 206.795197,174.969833 201.691193,172.973648 
	C191.195023,168.868622 188.238464,161.944916 188.825150,150.759583 
	C189.914383,129.993652 188.930923,109.126389 189.279175,88.309158 
	C189.368851,82.948051 187.518066,81.523308 182.725037,82.085846 
	C180.770020,82.315308 178.765579,82.123764 175.990463,82.123764 
	C175.990463,80.026756 176.285751,77.901886 175.920837,75.897194 
	C175.381454,72.934013 177.987656,67.510651 173.630661,67.539116 
	C168.672379,67.571495 171.795197,73.123924 171.082932,76.162720 
	C170.677109,77.894104 171.009537,79.798538 171.009537,82.124466 
	C168.272995,82.124466 165.667633,82.309326 163.099319,82.079781 
	C159.526840,81.760490 158.561676,83.268242 158.587219,86.692261 
	C158.722580,104.848961 158.651062,123.007195 158.651215,141.164902 
	C158.651230,142.949127 158.651215,144.733353 158.651215,147.670135 
	C149.306030,142.180008 140.743301,137.250046 132.337982,132.064865 
	C131.441742,131.511978 131.117447,129.468216 131.115189,128.115082 
	C131.084854,109.960258 131.066772,91.804367 131.242783,73.650642 
	C131.343765,63.234108 138.599976,55.568241 149.085373,55.365387 
	C165.570999,55.046452 182.071365,55.060562 198.557709,55.360626 
	C209.343475,55.556931 216.643143,63.599979 216.772064,74.517494 
	C216.807465,77.515472 216.779755,80.514206 216.780914,84.010422 
z"/>
<path fill="#1E89EB" opacity="1.000000" stroke="none" 
	d="
M155.511322,151.616669 
	C156.767059,153.563126 158.368759,155.249451 158.512390,157.051987 
	C158.892395,161.820999 158.641190,166.640335 158.641190,171.946136 
	C162.800858,171.946136 166.548080,171.946136 171.006470,171.946136 
	C171.006470,176.528915 170.794205,180.637161 171.119812,184.702332 
	C171.236221,186.155609 172.653503,187.504684 173.477020,188.901321 
	C174.315872,187.522812 175.756134,186.195328 175.878204,184.756042 
	C176.212936,180.809326 175.993607,176.815628 175.993607,172.230469 
	C183.281830,172.445602 190.447083,170.334625 196.644150,175.586090 
	C197.393036,176.220703 198.361145,176.595337 199.223755,177.097168 
	C219.575546,188.937027 219.575439,188.937195 224.531250,214.350235 
	C220.699066,212.875381 217.326645,211.855087 214.205750,210.322571 
	C205.955307,206.271240 197.349167,205.025253 188.183792,205.372635 
	C176.045609,205.832703 163.876465,205.541550 151.721237,205.468826 
	C137.993912,205.386719 131.088470,198.463821 131.074173,184.889999 
	C131.057892,169.422760 131.070404,153.955490 131.070404,137.379959 
	C139.555603,142.314972 147.374115,146.862259 155.511322,151.616669 
z"/>
</svg>